<svg xmlns="http://www.w3.org/2000/svg" viewBox="0 0 58.74 58.74" style="enable-background:new 0 0 58.74 58.74" xml:space="preserve"><path style="fill:#c7cac7" d="m32.267 12.728 9.192 9.192 6.364-6.364L32.267 0a9 9 0 0 0 0 12.728zM22.368 41.012l2.897-2.897-8.195-2.525c-.102-.036-.202.053-.192.16.569 6.001-7.091-.132-8.615-1.264a.803.803 0 0 0-.501-.157l-4.749.128a1.522 1.522 0 0 0-1.735.981l-.801 2.254a1.522 1.522 0 0 0 .695 1.84l4.191 2.327 15.046 5.136c-.312-2.12.335-4.359 1.959-5.983z"/><path style="fill:#dd352e" d="M56.309 26.87 32.267 50.912c-2.722 2.722-7.177 2.722-9.899 0-2.722-2.722-2.722-7.177 0-9.899L46.41 16.971c2.722-2.722 7.177-2.722 9.899 0 2.722 2.722 2.722 7.177 0 9.899z"/><path style="fill:#fff" d="M39.338 12.314a.997.997 0 0 1-.707-.293l-4.242-4.243a.999.999 0 1 1 1.414-1.414l4.242 4.243a.999.999 0 0 1-.707 1.707z"/><path style="fill:#e6e6e6" d="m50.304 24.24 1.793-1.793a.999.999 0 1 0-1.414-1.414l-1.793 1.793-1.793-1.793a.999.999 0 1 0-1.414 1.414l1.793 1.793-1.793 1.793a.999.999 0 1 0 1.414 1.414l1.793-1.793 1.793 1.793a.997.997 0 0 0 1.414 0 .999.999 0 0 0 0-1.414l-1.793-1.793z"/><path style="fill:#b02721" d="M27.317 49.954a3.965 3.965 0 0 1-2.827-1.163 1 1 0 1 1 1.414-1.415c.746.745 2.084.745 2.828 0l12.146-12.147a.999.999 0 1 1 1.414 1.414L30.146 48.79a3.97 3.97 0 0 1-2.829 1.164z"/><path style="fill:#c7cac7" d="m30.853 32.527.354-.354 5.27-5.27-2.516-5.31-4.208 2.701-2.351-5.145-4.208 2.701-2.351-5.145-4.208 2.701-2.351-5.145-4.208 2.701-2.274-4.972a.08.08 0 0 0-.146.005l-2.378 6.381a5 5 0 0 0 2.939 6.431c.001 0 22.464 7.892 22.636 7.72z"/><path style="fill:#fff" d="M13.564 42.774a1 1 0 0 1-.369-.071l-4.368-1.735a1 1 0 1 1 .738-1.858l4.368 1.735a1 1 0 0 1-.369 1.929z"/><path style="fill:none;stroke:#c7cac7;stroke-width:2;stroke-linecap:round;stroke-miterlimit:10" d="M21.813 50.277a3.979 3.979 0 0 0-.859.634 4 4 0 0 0 5.657 5.657 3.99 3.99 0 0 0 1.086-3.633"/></svg>