<svg xmlns="http://www.w3.org/2000/svg" viewBox="0 0 483.311 483.311" style="enable-background:new 0 0 483.311 483.311" xml:space="preserve"><path style="fill:#fff8ef" d="M245.6 416.911c-1.6 1.6-4 3.2-6.4 3.2s-4.8-.8-6.4-2.4c-4-3.2-4-8.8-.8-12.8l4-4 13.6 12-4 4zM220 393.711c-3.2 3.2-8.8 4-12.8.8-1.6-1.6-3.2-4-3.2-6.4s.8-4.8 2.4-6.4l4-4 12.8 12-3.2 4zM186.4 354.511l12.8 12-4 4c-1.6 1.6-4 2.4-6.4 3.2-2.4 0-4.8-.8-6.4-2.4-1.6-1.6-3.2-4-3.2-6.4s.8-4.8 2.4-6.4l4.8-4zM161.6 332.111l12.8 12-4 4c-3.2 3.2-8.8 4-12.8.8-1.6-1.6-3.2-4-3.2-6.4s.8-4.8 2.4-6.4l4.8-4zM174.4 246.511l55.2-60.8 49.6-7.2c1.6 0 4-.8 4.8-2.4l26.4-29.6 78.4 72-21.6 24.8c-.8 1.6-1.6 2.4-2.4 4l-7.2 46.4-5.6 6.4-64.8-56.8c12.8-1.6 26.4-8 37.6-20.8l-12-10.4c-13.6 15.2-29.6 17.6-44 16l-.8-.8v.8c-16.8-3.2-30.4-12-31.2-12.8-3.2-2.4-8-1.6-10.4.8l-39.2 42.4c-3.2 4-8.8 4-12.8.8-3.2-4-4-9.6 0-12.8z"/><path style="fill:#fff8ef" d="M350.4 320.111c1.6 1.6 3.2 4 3.2 6.4s-.8 4.8-2.4 6.4-4 2.4-6.4 3.2c-2.4 0-4.8-.8-6.4-2.4l-11.2-11.2-16.8-15.2-10.4 12 1.6 1.6 14.4 13.6 12 11.2c4 3.2 4 8.8.8 12.8s-8.8 4-12.8.8l-21.6-20-7.2-7.2-10.4 12 7.2 6.4 21.6 20c4 3.2 4 8.8.8 12.8-1.6 1.6-4 3.2-6.4 3.2s-4.8-.8-6.4-2.4l-28.8-26.4-10.4 12 1.6 1.6 27.2 24.8c4 3.2 4 8.8.8 12.8-4.8 3.2-11.2 3.2-14.4 0l-138.4-126.4-7.2-40.8c0-1.6-1.6-3.2-2.4-4.8l-20.8-18.4 71.2-78.4 16.8 15.2c1.6 1.6 3.2 2.4 5.6 2.4l47.2-1.6 10.4 10.4-28 4c-1.6 0-4 .8-4.8 2.4l-57.6 63.2c-9.6 10.4-8.8 26.4 1.6 35.2 4.8 4 11.2 6.4 16.8 6.4 7.2 0 13.6-2.4 18.4-8l34.4-37.6c8 4.8 17.6 8.8 28.8 11.2l88.8 76.8z"/><path style="fill:#2fb4c2" d="m447.2 159.311-11.2-11.2-13.6 15.2 12 11.2 12.8-15.2zm-81.6-92 99.2 90.4-53.6 58.4-8-8 22.4-24-12-11.2-22.4 24-78.4-72 52.8-57.6zM50.4 180.911l11.2-12-15.2-13.6-10.4 12 14.4 13.6zm21.6-2.4-11.2 12 24 22.4-7.2 8-58.4-53.6 90.4-99.2 58.4 53.6-72 78.4-24-21.6z"/><path style="fill:#42210b" d="m447.2 159.311-13.6 15.2-12-11.2 14.4-15.2zM61.6 168.911l-11.2 12-14.4-13.6 10.4-12z"/><path style="fill:#42210b" d="m174.4 343.311-12.8-11.2-4 4c-1.6 1.6-2.4 4-2.4 6.4s.8 4.8 3.2 6.4c4 3.2 8.8 3.2 12.8-.8l3.2-4.8zm64.8 76c2.4 0 4.8-.8 6.4-3.2l4-4-13.6-12-4 4c-3.2 4-3.2 9.6.8 12.8 1.6 1.6 4 3.2 6.4 2.4zm-40-52.8-12.8-12-4 4c-1.6 1.6-2.4 4-2.4 6.4s.8 4.8 3.2 6.4c1.6 1.6 4 2.4 6.4 2.4s4.8-.8 6.4-3.2l3.2-4zm8.8 28c4 3.2 8.8 3.2 12.8-.8l4-4-12.8-12-4.8 4c-1.6 1.6-2.4 4-2.4 6.4s1.6 4.8 3.2 6.4zm104-268.8 78.4 72 22.4-24 12 11.2-22.4 24 8 8 53.6-58.4-98.4-91.2-53.6 58.4zm55.2 117.6 22.4-24.8-78.4-72-26.4 29.6c-1.6 1.6-3.2 2.4-4.8 2.4l-49.6 7.2-55.2 60.8c-3.2 4-3.2 9.6.8 12.8 4 3.2 9.6 3.2 12.8-.8l39.2-42.4c2.4-3.2 7.2-3.2 10.4-.8.8.8 14.4 10.4 31.2 12.8v-.8l.8.8c13.6 2.4 29.6-.8 44-16l12 10.4c-12 12.8-24.8 19.2-37.6 20.8l64.8 57.6 5.6-6.4 7.2-46.4c-.8-2.4 0-3.2.8-4.8zM168 121.711l-58.4-53.6-90.4 99.2 58.4 53.6 7.2-8-24-22.4 11.2-12 24 22.4 72-79.2zm-36.8 160.8 138.4 126.4c4 3.2 9.6 3.2 12.8-.8 3.2-4 3.2-9.6-.8-12.8l-27.2-24.8-1.6-1.6 10.4-12 28.8 26.4c1.6 1.6 4 2.4 6.4 2.4s4.8-.8 6.4-3.2c3.2-4 3.2-9.6-.8-12.8l-21.6-20-7.2-6.4 12-11.2 7.2 6.4 21.6 20c4 3.2 9.6 3.2 12.8-.8 3.2-4 3.2-9.6-.8-12.8l-12-11.2-14.4-13.6-1.6-1.6 10.4-12 16.8 15.2 12 10.4c1.6 1.6 4 2.4 6.4 2.4s4.8-.8 6.4-3.2c1.6-1.6 2.4-4 2.4-6.4s-.8-4.8-3.2-6.4l-88-77.6c-11.2-2.4-20.8-6.4-28.8-11.2l-35.2 39.2c-4.8 5.6-12 8-18.4 8s-12-2.4-16.8-6.4c-10.4-9.6-11.2-24.8-1.6-35.2l57.6-63.2c1.6-1.6 3.2-2.4 4.8-2.4l28-4-11.2-9.6-47.2 1.6c-2.4 0-4-.8-5.6-2.4l-16-15.2-71.2 78.4 20.8 18.4c1.6.8 2.4 3.2 2.4 4.8l6.4 40.8zm8 60c0-6.4 2.4-13.6 7.2-18.4l4-4-32-28c-1.6-1.6-2.4-3.2-2.4-4.8l-7.2-40.8-18.4-16.8-6.4 7.2c-1.6 1.6-4 2.4-5.6 2.4s-4-.8-5.6-2.4l-70.4-64c-1.6-1.6-2.4-3.2-2.4-5.6 0-2.4.8-4 2.4-5.6l100.8-110.4c1.6-1.6 3.2-2.4 5.6-2.4s4 .8 5.6 2.4l70.4 64.8c3.2 3.2 3.2 8 .8 11.2l-2.4 1.6 14.4 12.8 47.2-1.6c2.4 0 4 .8 5.6 2.4l22.4 21.6h1.6l24.8-27.2-4-4.8c-1.6-1.6-2.4-3.2-2.4-5.6 0-2.4.8-4 2.4-5.6l64-70.4c3.2-3.2 8-3.2 11.2-.8l110.4 100.8c3.2 3.2 3.2 8 .8 11.2l-64 70.4c-1.6 1.6-3.2 2.4-5.6 2.4-2.4 0-4-.8-5.6-2.4l-4-4-21.6 24-7.2 46.4c0 1.6-.8 3.2-2.4 4l-8 8c3.2 4 5.6 8.8 5.6 14.4 0 7.2-1.6 13.6-6.4 18.4-4 4.8-10.4 7.2-16.8 8 0 6.4-2.4 12-6.4 16.8s-10.4 7.2-16.8 8c0 6.4-2.4 12-6.4 16.8s-10.4 7.2-16.8 8c0 6.4-2.4 12-6.4 17.6-4.8 5.6-12 8-18.4 8-4.8 0-9.6-1.6-13.6-4l-4 4.8c-4.8 4.8-10.4 8-17.6 8h-.8c-6.4 0-12-2.4-16.8-6.4s-7.2-10.4-8-16c-6.4 0-12-2.4-16.8-6.4s-7.2-10.4-8-16c-6.4 0-12-2.4-16.8-6.4s-7.2-10.4-8-16c-6.4 0-12-2.4-16.8-6.4-5.6-5.6-8-12-8-19.2z"/><path style="fill:#1d9aae" d="m109.6 68.111-67.2 72.8 56-47.2c7.2-6.4 18.4-6.4 25.6-.8l41.6 29.6 1.6-1.6-57.6-52.8zM317.6 119.311l40-28c6.4-4 14.4-4.8 20 0l51.2 34.4-63.2-57.6-48 51.2z"/><path style="fill:#d9cdc1" d="M148 288.111c-8-8-14.4-17.6-16.8-28.8l-4-15.2-3.2-1.6 7.2 40 138.4 126.4c2.4 2.4 5.6 2.4 8 1.6L148 288.111zM359.2 236.111l-8 48-8 8v.8l8.8 8 5.6-6.4 7.2-46.4c0-1.6.8-3.2 2.4-4l22.4-24.8-6.4-7.2-24 24z"/></svg>