<svg xmlns="http://www.w3.org/2000/svg" viewBox="0 0 57.98 57.98" style="enable-background:new 0 0 57.98 57.98" xml:space="preserve"><path style="fill:#ffdb2b" d="M48.99 22.069V17.98c-8.083 4.75-11-2-11-2-10.833-1.667-15 4-15 4-7.75-.75-11-3-11-3a12.11 12.11 0 0 1-5 3.474v2.27c7.11-2.684 15.229-2.233 22 1.353 6.145-3.255 13.396-3.917 20-2.008zM46.847 38.777c-16.518 1.655-17.857-11.044-17.857-14.7 0 3.656-1.339 16.355-17.857 14.7-1.798-.18-3.135-1.033-4.143-2.246V49.98c0 2.2 1.8 4 4 4h34c2.2 0 4-1.8 4-4V38.153a6.035 6.035 0 0 1-2.143.624z"/><path style="fill:#e57e25" d="M33.99 49c-2.338 0-14-.241-14-5a1 1 0 1 1 2 0c0 1.419 4.928 3 12 3a1 1 0 1 1 0 2z"/><path style="fill:#fec722" d="M39.685 57.98h-23.39a1.305 1.305 0 0 1-1.305-1.305V53.98h26v2.695c0 .72-.584 1.305-1.305 1.305z"/><path style="fill:#ac744f" d="M28.99 0c-4.493 0-8.725.981-12.451 2.707L15.99 6s-.822-1.121-1.608-2.178a26.853 26.853 0 0 0-4.511 3.233L11.99 12l-5.018-1.882C3.838 14.038 1.99 18.825 1.99 24c0 .183.02.361.024.542.442-.153 3.953-1.357 4.976-1.743v-2.345a12.11 12.11 0 0 0 5-3.474s3.25 2.25 11 3c0 0 4.167-5.667 15-4 0 0 2.917 6.75 11 2v4.164c1.72.497 6.988 3.418 6.988 2.157.002-.101.012-.199.012-.301 0-13.255-12.088-24-27-24z"/><path style="fill:#556080" d="M3.99 24.077c0 3.656.279 14.012 7.143 14.7 16.518 1.655 17.857-11.044 17.857-14.7-7.746-4.103-17.254-4.103-25 0z"/><path style="fill:#556080" d="M28.99 24.077c0 3.656 1.339 16.355 17.857 14.7 6.864-.688 7.143-11.044 7.143-14.7-7.746-4.103-17.254-4.103-25 0z"/><path style="fill:#8697cb" d="M45.197 29.457a.999.999 0 1 0-1.414-1.414l-2.121 2.121a.999.999 0 1 0 1.414 1.414l2.121-2.121zM39.541 32.285l-1.258 1.258a.999.999 0 1 0 1.414 1.414l1.258-1.258a.999.999 0 1 0-1.414-1.414zM45.041 32.285l-2.122 2.122a.999.999 0 1 0 1.414 1.414l2.122-2.122a.999.999 0 1 0-1.414-1.414zM50.697 28.043a.999.999 0 0 0-1.414 0l-2.121 2.121a.999.999 0 1 0 1.414 1.414l2.121-2.121a.999.999 0 0 0 0-1.414zM8.541 28.285l-1.258 1.258a.999.999 0 1 0 1.414 1.414l1.258-1.258a.999.999 0 1 0-1.414-1.414zM14.197 25.457a.999.999 0 1 0-1.414-1.414l-2.121 2.121a.999.999 0 1 0 1.414 1.414l2.121-2.121zM14.041 28.285l-2.122 2.122a.999.999 0 1 0 1.414 1.414l2.122-2.122a.999.999 0 1 0-1.414-1.414zM18.283 24.043l-2.121 2.121a.999.999 0 1 0 1.414 1.414l2.121-2.121a.999.999 0 1 0-1.414-1.414z"/></svg>