<svg xmlns="http://www.w3.org/2000/svg" width="32" height="32" style="enable-background:new 0 0 32 32" xml:space="preserve"><path d="M23 31h5l-1-5V10h-3v1h-1V9A7 7 0 1 0 9 9v2H8v-1H5v16l-1 5h5l-1-5V16h1v9h1.333L11 27h3.6L13 31h6l-1.6-4H21l.667-2H23v-9h1v10l-1 5zm1.22-1 .6-3h1.36l.6 3h-2.56zM16 3c3.308 0 6 2.691 6 6v1H10V9c0-3.309 2.692-6 6-6zM5.22 30l.6-3h1.36l.6 3H5.22zM7 26H6V11h1v15zm1-11v-3h1v3H8zm9.523 15h-3.046l1.2-3h.646l1.2 3zm2.756-4h-8.558l-.333-1h9.225l-.334 1zM22 24H10V11h12v13zm1-9v-3h1v3h-1zm2-4h1v15h-1V11z" style="fill:#2b4099"/><path d="M20 12v1h-6v-1h6zm-7 0h-1v1h1v-1zm-1-4h-1v1h1V8zm4-2h-1v1h1V6zm3 2h-1v1h1V8zm2 0h-1v1h1V8zm-3 6h-6v1h6v-1zm2 0h-1v1h1v-1zm0 2h-6v1h6v-1zm-7 0h-1v1h1v-1zm4 3h-2v3h2v-3zm1-1v5h-4v-5h4zM15.5 5c-.827 0-1.5.673-1.5 1.5S14.673 8 15.5 8 17 7.327 17 6.5 16.327 5 15.5 5zm0-1a2.5 2.5 0 1 1 0 5 2.5 2.5 0 0 1 0-5z" style="fill:#cc2954"/></svg>