<svg xmlns="http://www.w3.org/2000/svg" viewBox="0 0 151.54 161.33"><defs><style>.b5faa9ae-8a90-410b-8675-a354cd315cfb{fill:#03a0a5;}.bcc306e2-a979-4fad-8550-450d6bc3fddf{fill:#fff;}</style></defs><g id="e1eedd82-4ea5-4d82-82b7-655f4a5445a8" data-name="Layer 2"><g id="b752def3-f86a-4b70-8226-834657cb9781" data-name="Layer 1"><g id="fcc0e6f7-8a3f-42ed-bc16-ae49a4975f98" data-name="Automation Icon"><g id="a44753d4-8b95-414a-a6be-796c5cc9ab4e" data-name="Large gear"><path class="b5faa9ae-8a90-410b-8675-a354cd315cfb" d="M56.19,58.33l3,10.08,9,2.93,8.33-6.41,8.91,6.47-3.52,9.9L87.46,89,98,88.68l3.41,10.47-8.67,5.94v9.48l8.67,5.94L98,131l-10.5-.29-5.57,7.67,3.52,9.9-8.91,6.47-8.33-6.41-9,2.93-3,10.08h-11l-3-10.08-9-2.93-8.32,6.41L16,148.26l3.52-9.9-5.57-7.67L3.4,131,0,120.51l8.67-5.94v-9.48L0,99.15,3.4,88.68,13.91,89l5.57-7.67L16,71.4l8.91-6.47,8.32,6.41,9-2.93,3-10.08Z"/><circle class="bcc306e2-a979-4fad-8550-450d6bc3fddf" cx="50.68" cy="109.83" r="24.61"/></g><g id="a1fa39dd-bc2e-462c-a87f-7452c5079e3e" data-name="Small gear"><path class="b5faa9ae-8a90-410b-8675-a354cd315cfb" d="M108.67,0l3.44,7.82,7.57,1.43,6-6,7.86,4.31-1.82,8.35,5.29,5.6,8.44-1.32,3.83,8.1L143,34l1,7.64,7.61,3.9-1.66,8.8-8.51.85-3.7,6.76,3.87,7.63L135,75.67l-7.38-4.31-7,3.29-1.35,8.44-8.89,1.14L107,76.41,99.42,75l-6,6-7.86-4.3,1.81-8.35L82,62.75,73.6,64.07,69.77,56l6.38-5.69-1-7.64-7.61-3.9,1.66-8.8,8.51-.85,3.7-6.76-3.87-7.62,6.52-6.15,7.38,4.31,7-3.29,1.35-8.44Z"/><circle class="bcc306e2-a979-4fad-8550-450d6bc3fddf" cx="109.55" cy="42.12" r="14.3"/></g></g></g></g></svg>