<svg xmlns="http://www.w3.org/2000/svg" viewBox="0 0 200.19 161.33"><defs><style>.a3dc4a28-e4d7-4287-9d79-2cb147b3a0ad{fill:#03a0a5;}.a8798a21-0d7a-47e4-8e12-5f132034bd4b{fill:#fff;}.efc410c9-d440-4615-ab6e-7e4f85a016cf{fill:#fb923c;}.b1d5d909-138e-42d7-a5b5-c35e659e7125{fill:#f87171;}</style></defs><g id="aa710478-526b-49ea-ab10-1724faa2ad22" data-name="Layer 2"><g id="b89fe05a-53f5-4ccd-adbb-5c87691b9cf1" data-name="Layer 1"><g id="b12f8bb6-1259-4aa4-84bd-faf3bd33a187" data-name="Cloud Icon"><path class="a3dc4a28-e4d7-4287-9d79-2cb147b3a0ad" d="M3.64,93.09S2.59,74.75,26.3,63.51c0,0,7.2-34.32,42.17-33.72,0,0,16.81-30,53.73-25.74,0,0,29.56,1.48,41.42,40.38,0,0,34.67,5.47,32.87,46.44,0,0,.15,34.37-48.18,37.6H52.56S22.4,131,10.92,114.84C10.92,114.84,4.46,110.18,3.64,93.09Z"/><path class="a8798a21-0d7a-47e4-8e12-5f132034bd4b" d="M43.92,133.94c-8.15,0-20.14-1.51-29.65-9C5.66,118.21.86,108,0,94.63c0-.87-.86-20.38,23.18-32.75a55.91,55.91,0,0,1,8.13-16.94c5.91-8.27,16.76-18,35.13-18.4a62.1,62.1,0,0,1,12.77-13.9A57.1,57.1,0,0,1,122.53.44a42.82,42.82,0,0,1,17.8,6.18c8.37,5,19.56,15.17,26.13,35.32A46.64,46.64,0,0,1,183,50.13c8.37,6.53,18.13,19.13,17.16,42.11A42.2,42.2,0,0,1,193.56,112c-13.73,21.55-42.5,22-45.4,22l-.09-7.27c2.34-.06,30.5-1.17,41.08-21.4a33.69,33.69,0,0,0,3.7-13.12V92c.69-16-4.14-28.15-14.37-36.13A37.79,37.79,0,0,0,163,48.61l-2.25-.36-.65-2.18c-4.6-15.3-12.4-26.41-23.2-33A36.34,36.34,0,0,0,122,7.68l-.23,0C107.57,6,94.85,9.51,84,18.14A53,53,0,0,0,71.65,31.93l-1.06,1.9-2.18,0c-13.16-.23-23.59,4.88-31,15.16a47.82,47.82,0,0,0-7.51,16.17l-.37,1.75-1.61.78C16.38,72.5,8.58,83,8,94.55,7.34,107.25,15.64,116,16.66,117a32.07,32.07,0,0,0,12.94,7.77,43.38,43.38,0,0,0,23.56,1.43l0,7A56.05,56.05,0,0,1,43.92,133.94Z"/><path class="efc410c9-d440-4615-ab6e-7e4f85a016cf" d="M67.45,118c.27-5.62,6.78-7.46,8.23-7.8h40.14v-7.27H75l-.33.06c-4.79.88-14,5.08-14.45,14.65-.31,6.45-.2,21.1-.1,29.76l-7.4-7.58-5.2,5.08,16.07,16.44L80.32,145l-5.08-5.2-7.88,7.7C67.26,138.88,67.14,124.21,67.45,118Z"/><path class="b1d5d909-138e-42d7-a5b5-c35e659e7125" d="M153.19,116.82l-16.07-16.44-16.76,16.38,5.09,5.2,7.87-7.7c.1,8.57.22,23.24-.09,29.46-.27,5.63-6.78,7.46-8.23,7.8H84.86v7.27h40.85l.33-.06c4.79-.88,14-5.08,14.45-14.65.32-6.45.2-21.1.1-29.76L148,121.9Z"/></g></g></g></svg>