<svg xmlns="http://www.w3.org/2000/svg" viewBox="0 0 201.89 153.26"><defs><style>.a6389f40-1b54-4400-9e00-d6aa4c16cb7b{fill:#be8c63;}.be3bfc60-dea8-4ed6-a1f5-bdfcbb123f1e{fill:#03a0a5;}.af2026db-de04-489b-b141-89d9f53353b2{fill:#d6b199;}.a470bb78-9f30-450e-8220-adbddbee495b,.b5f207e6-ed56-41a7-b4f8-cfff73e395d5{fill:#fff;}.b78637e0-c612-47a7-ad9c-8a2069b4297e{fill:#f7ccac;}.fcacde96-1fc1-4f37-bde5-0f3ad7f284f8{fill:#3a3845;}.a55fbaa2-171d-4962-935e-b8b9aee5af04{fill:#41657f;}.f684dcba-a1ec-45e5-8361-a998eca2ed76{fill:#5584ac;}.fbf2c96c-85db-48c3-8f58-59546ff71872{fill:#e1e1e1;}.b5f207e6-ed56-41a7-b4f8-cfff73e395d5{stroke:#868686;stroke-miterlimit:10;stroke-width:0.48px;}.e177c70a-2206-4c35-bb11-c3475be9ba63{fill:#f1f5f9;}.a3714dea-274d-4527-b3ff-322d3a45103d{fill:#94a3b8;}.a4697fb7-ff88-4af3-a495-3c2d80d59859{fill:#d3c2b2;}.eed641af-6452-43ae-8bce-29bb531e3574{fill:#ebd8c3;}.f05149a6-f147-49a9-af09-b2a93b04818f{fill:#3a3a36;}.eb3800d8-4b38-43c8-9c03-5aa4aa7cba14{fill:#733c3c;}</style></defs><g id="b574a78d-84fb-4801-a353-bffabe55ff47" data-name="Layer 2"><g id="f201986b-4215-4faf-a348-c5b5d656c201" data-name="Layer 1"><g id="bf68d227-e5e7-4543-90eb-80fab7224258" data-name="Consultation Icon"><rect class="a6389f40-1b54-4400-9e00-d6aa4c16cb7b" x="95.43" y="133.44" width="83.34" height="2.08"/><path class="be3bfc60-dea8-4ed6-a1f5-bdfcbb123f1e" d="M137.32,119.2s-24.12-.11-30.17-.12a1.25,1.25,0,0,1-1.23-1c-1.82-7.25-1.32-35.93-1.32-35.93,0-3.68,10.76-8.92,13.07-10a2.37,2.37,0,0,1,.9-.21c3.65,0,27.65-.19,35.23-.17a9.87,9.87,0,0,1,4.36,1c3.79,1.89,11.44,6.1,11.44,9.21,0,0,.49,28.68-1.32,35.93a1.26,1.26,0,0,1-1.24,1c-6,0-30.17.12-30.17.12"/><rect class="af2026db-de04-489b-b141-89d9f53353b2" x="123.6" y="62.05" width="25.89" height="12.48"/><polygon class="a470bb78-9f30-450e-8220-adbddbee495b" points="136.9 74.44 126.88 84.42 117.35 72.17 122.55 68.18 136.9 74.44"/><polygon class="a470bb78-9f30-450e-8220-adbddbee495b" points="136.96 74.44 146.92 84.35 156.38 72.18 151.21 68.22 136.96 74.44"/><path class="b78637e0-c612-47a7-ad9c-8a2069b4297e" d="M137.1,30.19a16.25,16.25,0,0,1,14.38,9.44,16.48,16.48,0,0,1,1.32,9.07,22.6,22.6,0,0,0-.73,3.76,19.36,19.36,0,0,0,.73-3.76c.48-1.6,1.13-2.6,1.87-2.65,1.29-.1,2.44,2,2.85,3.28s.23,2.65-.18,5.2-.73,4.24-1.72,4.5a2.33,2.33,0,0,1-1.56-.48c-1.16-.7-1.32-1.79-1.74-1.7-.61.12-.92,2.15-1.31,3.55-1,3.76-3.66,6.12-5.23,7.53a19.41,19.41,0,0,1-8.3,4.32A16.9,16.9,0,0,1,129.09,69c-1.06-.8-4.9-3.72-6.1-8.49-.33-1.32-.66-3.44-1.29-3.56-.43-.08-.59,1-1.75,1.71a2.31,2.31,0,0,1-1.56.48c-1-.27-1.31-2-1.72-4.51s-.61-3.85-.18-5.19,1.55-3.38,2.85-3.28c.74,0,1.39,1,1.87,2.65a21.56,21.56,0,0,1,.72,3.75,22,22,0,0,1-.72-3.75,19.49,19.49,0,0,1,1.34-9.07A16.28,16.28,0,0,1,137.1,30.19Z"/><path class="fcacde96-1fc1-4f37-bde5-0f3ad7f284f8" d="M143.75,36.46s-11.91,5.11-17.91,3.4l-4.55,9.48s-5.93-4.94-1.64-16.2,20.5-14.27,25.85-10.87c0,0,2.72,1.33,2.09,2.88,0,0,3-2.31,3.76-1.19a22.53,22.53,0,0,1,1.37,23.94S150.31,37.2,143.75,36.46Z"/><rect class="a55fbaa2-171d-4962-935e-b8b9aee5af04" x="132.65" y="76.17" width="8.62" height="8.62" transform="translate(-16.79 120.42) rotate(-45)"/><path class="f684dcba-a1ec-45e5-8361-a998eca2ed76" d="M137.29,111.17l4.11-3.82-1.69-23.42h-5.45l-1.68,23.42Z"/><rect id="af45318f-e529-429f-b21a-36c0fa762e99" data-name="Macbook" class="fbf2c96c-85db-48c3-8f58-59546ff71872" x="103.02" y="91.41" width="68.15" height="41.67" rx="7.85"/><g id="b22c97dc-1676-48fe-afc4-0c241e7e25de" data-name="Apple Logo"><path class="b5f207e6-ed56-41a7-b4f8-cfff73e395d5" d="M136.82,110.34a2.57,2.57,0,0,0-.95-.34c-.62-.12-2.38.28-2.34,2.91a5.33,5.33,0,0,0,1.59,3.45,1,1,0,0,0,.84.26,8.84,8.84,0,0,1,1-.3.7.7,0,0,1,.45,0,4.45,4.45,0,0,1,.93.26,1,1,0,0,0,.79,0,3.87,3.87,0,0,0,1.5-2.23,1.92,1.92,0,0,1-1.17-1.84,1.84,1.84,0,0,1,.94-1.62,1.8,1.8,0,0,0-.94-.77,2.7,2.7,0,0,0-1.38,0l-.85.29A1.14,1.14,0,0,1,136.82,110.34Z"/><path class="b5f207e6-ed56-41a7-b4f8-cfff73e395d5" d="M136.79,109.85a2,2,0,0,1,1.74-2A1.77,1.77,0,0,1,136.79,109.85Z"/></g><path class="e177c70a-2206-4c35-bb11-c3475be9ba63" d="M198,0H162.92A3.89,3.89,0,0,0,159,3.88V20.41a3.89,3.89,0,0,0,3.89,3.89h1.64L161,32.88c-.14.35.46.53.78.23l9.76-8.81H198a3.89,3.89,0,0,0,3.89-3.89V3.88A3.89,3.89,0,0,0,198,0Zm-7.56,5.06a1.88,1.88,0,0,1,1.34-.56h5.51a1.9,1.9,0,0,1,0,3.79h-5.51a1.9,1.9,0,0,1-1.89-1.9A1.87,1.87,0,0,1,190.44,5.06Zm-8,0a1.88,1.88,0,0,1,1.34-.56h1.63a1.9,1.9,0,0,1,0,3.79h-1.63a1.9,1.9,0,0,1-1.89-1.9A1.87,1.87,0,0,1,182.44,5.06Zm2.67,7.17a1.91,1.91,0,0,1-1.9,1.9H174a1.9,1.9,0,0,1-1.89-1.9,1.84,1.84,0,0,1,.56-1.33,1.88,1.88,0,0,1,1.33-.56h9.24A1.9,1.9,0,0,1,185.11,12.23ZM162.05,5.06a1.87,1.87,0,0,1,1.34-.56H178.7a1.9,1.9,0,0,1,1.9,1.89A1.87,1.87,0,0,1,180,7.73a1.89,1.89,0,0,1-1.34.56H163.39a1.9,1.9,0,0,1-1.34-3.23Zm0,5.84a1.91,1.91,0,0,1,1.34-.56h5.51a1.89,1.89,0,0,1,1.89,1.89,1.85,1.85,0,0,1-.56,1.34,1.88,1.88,0,0,1-1.33.56h-5.51a1.9,1.9,0,0,1-1.34-3.23ZM174,19.24a1.92,1.92,0,0,1-1.34.55h-9.24a1.88,1.88,0,0,1-1.89-1.89A1.88,1.88,0,0,1,163.39,16h9.24A1.9,1.9,0,0,1,174,19.24Zm24.49,0a1.9,1.9,0,0,1-1.34.55H177.7a1.89,1.89,0,0,1,0-3.78h19.42a1.89,1.89,0,0,1,1.34,3.23Zm.41-5.67a1.92,1.92,0,0,1-1.34.56h-9.24a1.9,1.9,0,0,1-1.89-1.9A1.87,1.87,0,0,1,187,10.9a1.91,1.91,0,0,1,1.34-.56h9.24a1.9,1.9,0,0,1,1.34,3.23Z"/><path class="a3714dea-274d-4527-b3ff-322d3a45103d" d="M180.6,6.39A1.87,1.87,0,0,1,180,7.73a1.89,1.89,0,0,1-1.34.56H163.39a1.9,1.9,0,0,1-1.34-3.23,1.87,1.87,0,0,1,1.34-.56H178.7A1.9,1.9,0,0,1,180.6,6.39Z"/><path class="a3714dea-274d-4527-b3ff-322d3a45103d" d="M199.18,6.39a1.89,1.89,0,0,1-1.89,1.9h-5.51a1.9,1.9,0,0,1-1.89-1.9,1.89,1.89,0,0,1,1.89-1.89h5.51A1.89,1.89,0,0,1,199.18,6.39Z"/><path class="a3714dea-274d-4527-b3ff-322d3a45103d" d="M187.3,6.39a1.89,1.89,0,0,1-1.89,1.9h-1.63a1.9,1.9,0,0,1-1.89-1.9,1.89,1.89,0,0,1,1.89-1.89h1.63A1.89,1.89,0,0,1,187.3,6.39Z"/><path class="a3714dea-274d-4527-b3ff-322d3a45103d" d="M170.79,12.23a1.85,1.85,0,0,1-.56,1.34,1.88,1.88,0,0,1-1.33.56h-5.51a1.9,1.9,0,0,1,0-3.79h5.51A1.89,1.89,0,0,1,170.79,12.23Z"/><path class="a3714dea-274d-4527-b3ff-322d3a45103d" d="M185.11,12.23a1.91,1.91,0,0,1-1.9,1.9H174a1.9,1.9,0,0,1-1.89-1.9,1.84,1.84,0,0,1,.56-1.33,1.88,1.88,0,0,1,1.33-.56h9.24A1.9,1.9,0,0,1,185.11,12.23Z"/><path class="a3714dea-274d-4527-b3ff-322d3a45103d" d="M199.42,12.23a1.88,1.88,0,0,1-.55,1.34,1.92,1.92,0,0,1-1.34.56h-9.24a1.9,1.9,0,0,1-1.89-1.9A1.87,1.87,0,0,1,187,10.9a1.91,1.91,0,0,1,1.34-.56h9.24A1.89,1.89,0,0,1,199.42,12.23Z"/><path class="a3714dea-274d-4527-b3ff-322d3a45103d" d="M174.52,17.9a1.88,1.88,0,0,1-1.89,1.89h-9.24a1.88,1.88,0,0,1-1.89-1.89A1.88,1.88,0,0,1,163.39,16h9.24A1.89,1.89,0,0,1,174.52,17.9Z"/><path class="a3714dea-274d-4527-b3ff-322d3a45103d" d="M199,17.9a1.89,1.89,0,0,1-1.9,1.89H177.7a1.89,1.89,0,0,1,0-3.78h19.42A1.9,1.9,0,0,1,199,17.9Z"/><path class="e177c70a-2206-4c35-bb11-c3475be9ba63" d="M0,35.52V51.93a3.85,3.85,0,0,0,3.86,3.85H30.1l9.7,8.76c.32.29.91.11.77-.23l-3.51-8.53h1.63a3.85,3.85,0,0,0,3.86-3.85V35.52a3.85,3.85,0,0,0-3.86-3.85H3.86A3.85,3.85,0,0,0,0,35.52ZM11.91,38A1.88,1.88,0,0,1,10,39.89H4.56a1.88,1.88,0,0,1,0-3.76H10A1.88,1.88,0,0,1,11.91,38Zm7.94,0A1.88,1.88,0,0,1,18,39.89H16.36a1.88,1.88,0,1,1,0-3.76H18A1.88,1.88,0,0,1,19.85,38Zm-1.31,3.92h9.17a1.88,1.88,0,0,1,0,3.76H18.54a1.88,1.88,0,0,1,0-3.76ZM40.1,38a1.88,1.88,0,0,1-1.88,1.88H23a1.88,1.88,0,1,1,0-3.76h15.2A1.88,1.88,0,0,1,40.1,38Zm0,5.8a1.88,1.88,0,0,1-1.88,1.88H32.75a1.87,1.87,0,0,1-1.33-.55,1.91,1.91,0,0,1-.54-1.33,1.88,1.88,0,0,1,1.87-1.88h5.47a1.88,1.88,0,0,1,1.88,1.88ZM27.17,49.44a1.88,1.88,0,0,1,1.88-1.88h9.17a1.88,1.88,0,1,1,0,3.75H29.05a1.87,1.87,0,0,1-1.33-.55A1.83,1.83,0,0,1,27.17,49.44Zm-24.32,0a1.88,1.88,0,0,1,1.88-1.88H24a1.88,1.88,0,1,1,0,3.75H4.73a1.87,1.87,0,0,1-1.33-.55A1.83,1.83,0,0,1,2.85,49.44Zm-.4-5.63a1.88,1.88,0,0,1,1.88-1.88H13.5a1.88,1.88,0,0,1,0,3.76H4.33a1.88,1.88,0,0,1-1.88-1.88Z"/><path class="a3714dea-274d-4527-b3ff-322d3a45103d" d="M21.14,38A1.88,1.88,0,0,0,23,39.89h15.2a1.88,1.88,0,1,0,0-3.76H23A1.88,1.88,0,0,0,21.14,38Z"/><path class="a3714dea-274d-4527-b3ff-322d3a45103d" d="M2.69,38a1.88,1.88,0,0,0,1.87,1.88H10a1.88,1.88,0,1,0,0-3.76H4.56A1.88,1.88,0,0,0,2.69,38Z"/><path class="a3714dea-274d-4527-b3ff-322d3a45103d" d="M14.48,38a1.88,1.88,0,0,0,1.88,1.88H18a1.88,1.88,0,1,0,0-3.76H16.36A1.88,1.88,0,0,0,14.48,38Z"/><path class="a3714dea-274d-4527-b3ff-322d3a45103d" d="M30.88,43.81a1.91,1.91,0,0,0,.54,1.33,1.87,1.87,0,0,0,1.33.55h5.47a1.88,1.88,0,1,0,0-3.76H32.75A1.88,1.88,0,0,0,30.88,43.81Z"/><path class="a3714dea-274d-4527-b3ff-322d3a45103d" d="M16.66,43.81a1.88,1.88,0,0,0,1.88,1.88h9.17a1.88,1.88,0,1,0,0-3.76H18.54A1.88,1.88,0,0,0,16.66,43.81Z"/><path class="a3714dea-274d-4527-b3ff-322d3a45103d" d="M2.45,43.81a1.88,1.88,0,0,0,1.88,1.88H13.5a1.88,1.88,0,1,0,0-3.76H4.33A1.88,1.88,0,0,0,2.45,43.81Z"/><path class="a3714dea-274d-4527-b3ff-322d3a45103d" d="M27.17,49.44a1.83,1.83,0,0,0,.55,1.32,1.87,1.87,0,0,0,1.33.55h9.17a1.88,1.88,0,1,0,0-3.75H29.05A1.88,1.88,0,0,0,27.17,49.44Z"/><path class="a3714dea-274d-4527-b3ff-322d3a45103d" d="M2.85,49.44a1.83,1.83,0,0,0,.55,1.32,1.87,1.87,0,0,0,1.33.55H24a1.88,1.88,0,1,0,0-3.75H4.73A1.88,1.88,0,0,0,2.85,49.44Z"/><rect class="a4697fb7-ff88-4af3-a495-3c2d80d59859" x="55.67" y="105.72" width="21.57" height="7.93"/><path class="eed641af-6452-43ae-8bce-29bb531e3574" d="M91,84.89a9.36,9.36,0,0,1-1.87,4.89,12.28,12.28,0,0,1-3,2.94l-.67.44-2.25,7.63a26.31,26.31,0,0,1-4.3,4.52c-1.89,1.57-3.57,3-5.23,3.42a30.51,30.51,0,0,1-14.58-.15,27.64,27.64,0,0,1-5.23-3.37,25.19,25.19,0,0,1-4.3-4.45l-2.25-7.5a12.45,12.45,0,0,1-3.65-3.33,9.13,9.13,0,0,1-1.87-4.81c-.08-1.23-.16-2.5.8-3.13a3.55,3.55,0,0,1,3.4.18C44.42,70.63,49.75,61.1,57.54,58.78a15.26,15.26,0,0,1,7.74-.15,16.21,16.21,0,0,1,10.08-.5c7.79,2.36,13.12,12,11.48,23.77a3.53,3.53,0,0,1,3.4-.19C91.2,82.36,91.12,83.65,91,84.89Z"/><path class="f05149a6-f147-49a9-af09-b2a93b04818f" d="M61.47,54.49c-4.92-2.18-7.89-1.7-9.67-.88-8.11,3.71-9.41,22.49-3.3,47.21a40.26,40.26,0,0,0,14.87,3.62c4.94.22,13.09.58,18.17-4.69C86.89,94.43,92.41,66,83.59,58,76,51.11,63.7,53.94,61.47,54.49Z"/><path class="eb3800d8-4b38-43c8-9c03-5aa4aa7cba14" d="M98.69,129.94l-.36,20.75a2.52,2.52,0,0,1-2.42,2.57H37a2.53,2.53,0,0,1-2.42-2.57l-.36-20.75A3.14,3.14,0,0,1,36,127l10.39-4.9a4.53,4.53,0,0,0,2.21-2.29L52,112.08c0-.46,13.12.1,14.45.15s14.45-.61,14.45-.15l3.46,7.74a4.47,4.47,0,0,0,2.2,2.29L97,127A3.14,3.14,0,0,1,98.69,129.94Z"/><polygon class="a470bb78-9f30-450e-8220-adbddbee495b" points="51.29 111.37 49.03 116.09 83.87 116.09 81.61 111.55 51.29 111.37"/></g></g></g></svg>