<svg xmlns="http://www.w3.org/2000/svg" viewBox="0 0 151.27 161.33"><defs><style>.e3fa9e9a-a0af-4e39-9de4-c4b076910f7e{fill:#fff;}.a8c13ac9-7b4c-4bec-81c6-15651ea9e283{fill:#024c4c;}.adeb1589-8ede-4b61-8e0b-994d80c41db2{fill:#03a0a5;}</style></defs><g id="e30bf87c-9372-4ba4-8a88-bf48a02a87dc" data-name="Layer 2"><g id="a0f63783-c07a-474d-8e02-ee65dab87c8e" data-name="Layer 1"><g id="b61ca914-63dd-4bf3-a356-22739750dc59" data-name="Shield Icon"><path class="e3fa9e9a-a0af-4e39-9de4-c4b076910f7e" d="M151.09,41.5c-4.68,23-21.47,85.25-70.38,118.28a9,9,0,0,1-10.13,0C21.65,126.75,4.86,64.46.19,41.5c-1-4.73,1.87-9.66,6.61-10.59,35.42-7,53.67-22.32,63.68-29.29a9,9,0,0,1,10.32,0c10,7,19.17,18.32,63.68,29.29A9,9,0,0,1,151.09,41.5Z"/><path class="a8c13ac9-7b4c-4bec-81c6-15651ea9e283" d="M138.5,48c-3.9,19.13-17.88,71-58.64,98.56a7.55,7.55,0,0,1-8.44,0C30.66,119.07,16.67,67.16,12.77,48a7.39,7.39,0,0,1,5.51-8.82C47.79,33.38,63,20.61,71.34,14.8a7.56,7.56,0,0,1,8.6,0c8.34,5.82,16,15.27,53.05,24.41A7.51,7.51,0,0,1,138.5,48Z"/><path class="adeb1589-8ede-4b61-8e0b-994d80c41db2" d="M75.64,13.46V147.88a7.47,7.47,0,0,1-4.22-1.3C30.66,119.06,16.67,67.16,12.77,48a7.4,7.4,0,0,1,5.52-8.82C47.79,33.38,63,20.62,71.35,14.8A7.45,7.45,0,0,1,75.64,13.46Z"/></g></g></g></svg>