<svg xmlns="http://www.w3.org/2000/svg" viewBox="0 0 200.84 162.08"><defs><style>.baa84409-b48a-4e04-8ef5-be04fb6f1c84,.fe54bf39-15bf-4ebc-a0df-aec27412a606{fill:#2c3333;}.a0ed70c1-aea1-4096-9110-e8bc85570a93,.a1e1c019-f613-4004-9c38-e48ed3fdb703,.a4131f17-2169-4860-97ee-f6ac1334f183,.a5b78c75-fde4-4f00-bdd9-816e7ba39633,.a766166f-02d0-405a-8fb9-4fbda28a0327,.aabbe92e-4361-4f85-9a07-0b9c76b23e10,.b026a980-025e-4554-9c3f-f73f6e314ea5,.b15a277c-0839-4579-a796-3604e2b66216,.b29f2c7c-d1c3-408f-aaf8-43a0f49290c4,.b4273f27-fdaf-4971-9bda-9276d1514d10,.b68b4fab-5a44-4ff1-b5b1-920a3e957bd7,.b708050c-d686-48b6-ab7a-59e26b70199d,.ba889cf7-bf4d-4fdd-9dbc-f05b8853d535,.baa84409-b48a-4e04-8ef5-be04fb6f1c84,.bd363368-55da-4631-a1d6-878dd68da818,.bf0e60ba-407a-49a0-8cb2-eef4499095ed,.bfd7ad36-4ac1-488d-8909-279da4198d9a,.ed27516f-5adc-4678-80f8-e53d40dcae93,.edadedaa-da77-4d4c-a5b6-30441071f179,.f3554fc9-baa4-4152-be3b-72e6d3cf4093,.f4c75b80-0a1a-4d6f-b646-b7b38466ea63,.fe54bf39-15bf-4ebc-a0df-aec27412a606{stroke:#fff;stroke-miterlimit:10;}.fe54bf39-15bf-4ebc-a0df-aec27412a606{stroke-width:1.28px;}.bfd7ad36-4ac1-488d-8909-279da4198d9a,.ed27516f-5adc-4678-80f8-e53d40dcae93{fill:#323a3a;}.ed27516f-5adc-4678-80f8-e53d40dcae93{stroke-width:1.34px;}.aabbe92e-4361-4f85-9a07-0b9c76b23e10,.b15a277c-0839-4579-a796-3604e2b66216,.b4273f27-fdaf-4971-9bda-9276d1514d10,.b68b4fab-5a44-4ff1-b5b1-920a3e957bd7,.b708050c-d686-48b6-ab7a-59e26b70199d,.bd363368-55da-4631-a1d6-878dd68da818,.bf0e60ba-407a-49a0-8cb2-eef4499095ed,.f3554fc9-baa4-4152-be3b-72e6d3cf4093{fill:#059fa4;}.b708050c-d686-48b6-ab7a-59e26b70199d{stroke-width:0.49px;}.ba889cf7-bf4d-4fdd-9dbc-f05b8853d535,.f4c75b80-0a1a-4d6f-b646-b7b38466ea63{fill:#006879;}.a4131f17-2169-4860-97ee-f6ac1334f183,.a5b78c75-fde4-4f00-bdd9-816e7ba39633,.f4c75b80-0a1a-4d6f-b646-b7b38466ea63{stroke-width:0.26px;}.a5b78c75-fde4-4f00-bdd9-816e7ba39633,.a766166f-02d0-405a-8fb9-4fbda28a0327,.b026a980-025e-4554-9c3f-f73f6e314ea5,.b29f2c7c-d1c3-408f-aaf8-43a0f49290c4{fill:#0092aa;}.a0ed70c1-aea1-4096-9110-e8bc85570a93,.a1e1c019-f613-4004-9c38-e48ed3fdb703,.a4131f17-2169-4860-97ee-f6ac1334f183,.edadedaa-da77-4d4c-a5b6-30441071f179{fill:#00afc0;}.b4273f27-fdaf-4971-9bda-9276d1514d10{stroke-width:0.43px;}.f3554fc9-baa4-4152-be3b-72e6d3cf4093{stroke-width:0.54px;}.aabbe92e-4361-4f85-9a07-0b9c76b23e10{stroke-width:0.43px;}.a766166f-02d0-405a-8fb9-4fbda28a0327{stroke-width:0.3px;}.a1e1c019-f613-4004-9c38-e48ed3fdb703{stroke-width:0.3px;}.fe6cbb83-4302-4237-b741-fb1bbff3b2a2{fill:#ffbd35;}.baa84409-b48a-4e04-8ef5-be04fb6f1c84{stroke-width:1.5px;}.bfd7ad36-4ac1-488d-8909-279da4198d9a{stroke-width:1.57px;}.b68b4fab-5a44-4ff1-b5b1-920a3e957bd7{stroke-width:0.57px;}.a0ed70c1-aea1-4096-9110-e8bc85570a93,.b026a980-025e-4554-9c3f-f73f6e314ea5,.ba889cf7-bf4d-4fdd-9dbc-f05b8853d535{stroke-width:0.31px;}.bd363368-55da-4631-a1d6-878dd68da818{stroke-width:0.5px;}.b15a277c-0839-4579-a796-3604e2b66216{stroke-width:0.63px;}.bf0e60ba-407a-49a0-8cb2-eef4499095ed{stroke-width:0.5px;}.b29f2c7c-d1c3-408f-aaf8-43a0f49290c4{stroke-width:0.35px;}.edadedaa-da77-4d4c-a5b6-30441071f179{stroke-width:0.35px;}</style></defs><g id="a10182f6-1d8e-46c8-8bc8-2d1874da039b" data-name="Layer 2"><g id="f454bad9-8191-40b7-b961-6e9d26ac0e5b" data-name="Layer 1"><g id="e76cef19-3bcf-426f-adba-e2350d70d864" data-name="Data Center Icon"><rect class="fe54bf39-15bf-4ebc-a0df-aec27412a606" x="111.5" y="136.64" width="88.7" height="17.91" rx="2.56"/><path class="ed27516f-5adc-4678-80f8-e53d40dcae93" d="M125.54,33.62h60.62a6,6,0,0,1,6,6v96.81a0,0,0,0,1,0,0H119.57a0,0,0,0,1,0,0V39.59A6,6,0,0,1,125.54,33.62Z"/><rect class="b708050c-d686-48b6-ab7a-59e26b70199d" x="125.61" y="66.47" width="60.48" height="16.13" rx="2.56"/><rect class="f4c75b80-0a1a-4d6f-b646-b7b38466ea63" x="129.4" y="68.08" width="21.46" height="3.23" rx="1.2"/><rect class="a5b78c75-fde4-4f00-bdd9-816e7ba39633" x="129.4" y="72.92" width="21.46" height="3.23" rx="1.2"/><rect class="a4131f17-2169-4860-97ee-f6ac1334f183" x="129.4" y="77.76" width="21.46" height="3.23" rx="1.2"/><circle class="b4273f27-fdaf-4971-9bda-9276d1514d10" cx="164.57" cy="74.53" r="1.61"/><circle class="f3554fc9-baa4-4152-be3b-72e6d3cf4093" cx="179.08" cy="74.53" r="3.23"/><circle class="aabbe92e-4361-4f85-9a07-0b9c76b23e10" cx="171.02" cy="74.53" r="2.42"/><rect class="b708050c-d686-48b6-ab7a-59e26b70199d" x="125.61" y="108.4" width="60.48" height="16.13" rx="2.56"/><rect class="f4c75b80-0a1a-4d6f-b646-b7b38466ea63" x="129.4" y="110.01" width="21.46" height="3.23" rx="1.2"/><rect class="a5b78c75-fde4-4f00-bdd9-816e7ba39633" x="129.4" y="114.85" width="21.46" height="3.23" rx="1.2"/><rect class="a4131f17-2169-4860-97ee-f6ac1334f183" x="129.4" y="119.69" width="21.46" height="3.23" rx="1.2"/><circle class="b4273f27-fdaf-4971-9bda-9276d1514d10" cx="164.57" cy="116.46" r="1.61"/><circle class="f3554fc9-baa4-4152-be3b-72e6d3cf4093" cx="179.08" cy="116.46" r="3.23"/><circle class="aabbe92e-4361-4f85-9a07-0b9c76b23e10" cx="171.02" cy="116.46" r="2.42"/><rect class="b708050c-d686-48b6-ab7a-59e26b70199d" x="125.61" y="45.5" width="60.48" height="16.13" rx="2.56"/><rect class="a766166f-02d0-405a-8fb9-4fbda28a0327" x="129.4" y="48.32" width="21.46" height="4.03" rx="1.5"/><rect class="a1e1c019-f613-4004-9c38-e48ed3fdb703" x="129.4" y="54.77" width="21.46" height="4.03" rx="1.5"/><circle class="b4273f27-fdaf-4971-9bda-9276d1514d10" cx="164.57" cy="53.56" r="1.61"/><circle class="f3554fc9-baa4-4152-be3b-72e6d3cf4093" cx="179.08" cy="53.56" r="3.23"/><circle class="aabbe92e-4361-4f85-9a07-0b9c76b23e10" cx="171.02" cy="53.56" r="2.42"/><rect class="b708050c-d686-48b6-ab7a-59e26b70199d" x="125.61" y="87.43" width="60.48" height="16.13" rx="2.56"/><rect class="a766166f-02d0-405a-8fb9-4fbda28a0327" x="129.4" y="90.25" width="21.46" height="4.03" rx="1.5"/><rect class="a1e1c019-f613-4004-9c38-e48ed3fdb703" x="129.4" y="96.71" width="21.46" height="4.03" rx="1.5"/><circle class="b4273f27-fdaf-4971-9bda-9276d1514d10" cx="164.57" cy="95.5" r="1.61"/><circle class="f3554fc9-baa4-4152-be3b-72e6d3cf4093" cx="179.08" cy="95.5" r="3.23"/><circle class="aabbe92e-4361-4f85-9a07-0b9c76b23e10" cx="171.02" cy="95.5" r="2.42"/><rect class="fe54bf39-15bf-4ebc-a0df-aec27412a606" x="0.64" y="136.64" width="88.7" height="17.91" rx="2.56"/><path class="ed27516f-5adc-4678-80f8-e53d40dcae93" d="M14.68,33.62H75.3a6,6,0,0,1,6,6v96.81a0,0,0,0,1,0,0H8.7a0,0,0,0,1,0,0V39.59A6,6,0,0,1,14.68,33.62Z"/><rect class="b708050c-d686-48b6-ab7a-59e26b70199d" x="14.75" y="66.47" width="60.48" height="16.13" rx="2.56"/><rect class="f4c75b80-0a1a-4d6f-b646-b7b38466ea63" x="18.54" y="68.08" width="21.46" height="3.23" rx="1.2"/><rect class="a5b78c75-fde4-4f00-bdd9-816e7ba39633" x="18.54" y="72.92" width="21.46" height="3.23" rx="1.2"/><rect class="a4131f17-2169-4860-97ee-f6ac1334f183" x="18.54" y="77.76" width="21.46" height="3.23" rx="1.2"/><circle class="b4273f27-fdaf-4971-9bda-9276d1514d10" cx="53.71" cy="74.53" r="1.61"/><circle class="f3554fc9-baa4-4152-be3b-72e6d3cf4093" cx="68.22" cy="74.53" r="3.23"/><circle class="aabbe92e-4361-4f85-9a07-0b9c76b23e10" cx="60.16" cy="74.53" r="2.42"/><rect class="b708050c-d686-48b6-ab7a-59e26b70199d" x="14.75" y="108.4" width="60.48" height="16.13" rx="2.56"/><rect class="f4c75b80-0a1a-4d6f-b646-b7b38466ea63" x="18.54" y="110.01" width="21.46" height="3.23" rx="1.2"/><rect class="a5b78c75-fde4-4f00-bdd9-816e7ba39633" x="18.54" y="114.85" width="21.46" height="3.23" rx="1.2"/><rect class="a4131f17-2169-4860-97ee-f6ac1334f183" x="18.54" y="119.69" width="21.46" height="3.23" rx="1.2"/><circle class="b4273f27-fdaf-4971-9bda-9276d1514d10" cx="53.71" cy="116.46" r="1.61"/><circle class="f3554fc9-baa4-4152-be3b-72e6d3cf4093" cx="68.22" cy="116.46" r="3.23"/><circle class="aabbe92e-4361-4f85-9a07-0b9c76b23e10" cx="60.16" cy="116.46" r="2.42"/><rect class="b708050c-d686-48b6-ab7a-59e26b70199d" x="14.75" y="45.5" width="60.48" height="16.13" rx="2.56"/><rect class="a766166f-02d0-405a-8fb9-4fbda28a0327" x="18.54" y="48.32" width="21.46" height="4.03" rx="1.5"/><rect class="a1e1c019-f613-4004-9c38-e48ed3fdb703" x="18.54" y="54.77" width="21.46" height="4.03" rx="1.5"/><circle class="b4273f27-fdaf-4971-9bda-9276d1514d10" cx="53.71" cy="53.56" r="1.61"/><circle class="f3554fc9-baa4-4152-be3b-72e6d3cf4093" cx="68.22" cy="53.56" r="3.23"/><circle class="aabbe92e-4361-4f85-9a07-0b9c76b23e10" cx="60.16" cy="53.56" r="2.42"/><rect class="b708050c-d686-48b6-ab7a-59e26b70199d" x="14.75" y="87.43" width="60.48" height="16.13" rx="2.56"/><rect class="a766166f-02d0-405a-8fb9-4fbda28a0327" x="18.54" y="90.25" width="21.46" height="4.03" rx="1.5"/><rect class="a1e1c019-f613-4004-9c38-e48ed3fdb703" x="18.54" y="96.71" width="21.46" height="4.03" rx="1.5"/><circle class="b4273f27-fdaf-4971-9bda-9276d1514d10" cx="53.71" cy="95.5" r="1.61"/><circle class="f3554fc9-baa4-4152-be3b-72e6d3cf4093" cx="68.22" cy="95.5" r="3.23"/><circle class="aabbe92e-4361-4f85-9a07-0b9c76b23e10" cx="60.16" cy="95.5" r="2.42"/><rect class="fe6cbb83-4302-4237-b741-fb1bbff3b2a2" x="94.75" y="8.45" width="5.62" height="5.62"/><rect class="fe6cbb83-4302-4237-b741-fb1bbff3b2a2" x="94.75" width="5.62" height="5.62"/><rect class="fe6cbb83-4302-4237-b741-fb1bbff3b2a2" x="103.21" y="8.45" width="5.62" height="5.62"/><rect class="fe6cbb83-4302-4237-b741-fb1bbff3b2a2" x="103.21" width="5.62" height="5.62"/><rect class="fe6cbb83-4302-4237-b741-fb1bbff3b2a2" x="28.51" y="25.26" width="5.62" height="5.62"/><rect class="fe6cbb83-4302-4237-b741-fb1bbff3b2a2" x="28.51" y="16.81" width="5.62" height="5.62"/><rect class="fe6cbb83-4302-4237-b741-fb1bbff3b2a2" x="36.97" y="25.26" width="5.62" height="5.62"/><rect class="fe6cbb83-4302-4237-b741-fb1bbff3b2a2" x="36.97" y="16.81" width="5.62" height="5.62"/><rect class="fe6cbb83-4302-4237-b741-fb1bbff3b2a2" x="36.97" y="8.36" width="5.62" height="5.62"/><rect class="fe6cbb83-4302-4237-b741-fb1bbff3b2a2" x="166.72" y="25.08" width="5.62" height="5.62" transform="translate(339.05 55.77) rotate(-180)"/><rect class="fe6cbb83-4302-4237-b741-fb1bbff3b2a2" x="166.72" y="16.63" width="5.62" height="5.62" transform="translate(339.05 38.87) rotate(-180)"/><rect class="fe6cbb83-4302-4237-b741-fb1bbff3b2a2" x="158.26" y="25.08" width="5.62" height="5.62" transform="translate(322.13 55.77) rotate(-180)"/><rect class="fe6cbb83-4302-4237-b741-fb1bbff3b2a2" x="158.26" y="16.63" width="5.62" height="5.62" transform="translate(322.13 38.87) rotate(-180)"/><rect class="fe6cbb83-4302-4237-b741-fb1bbff3b2a2" x="158.26" y="8.17" width="5.62" height="5.62" transform="translate(322.13 21.97) rotate(-180)"/><rect class="baa84409-b48a-4e04-8ef5-be04fb6f1c84" x="49.85" y="140.35" width="103.88" height="20.98" rx="3"/><path class="bfd7ad36-4ac1-488d-8909-279da4198d9a" d="M66.29,19.7h71a7,7,0,0,1,7,7V140.08a0,0,0,0,1,0,0h-85a0,0,0,0,1,0,0V26.7A7,7,0,0,1,66.29,19.7Z"/><rect class="b68b4fab-5a44-4ff1-b5b1-920a3e957bd7" x="66.38" y="58.17" width="70.82" height="18.89" rx="3"/><rect class="ba889cf7-bf4d-4fdd-9dbc-f05b8853d535" x="70.81" y="60.06" width="25.13" height="3.78" rx="1.4"/><rect class="b026a980-025e-4554-9c3f-f73f6e314ea5" x="70.81" y="65.73" width="25.13" height="3.78" rx="1.4"/><rect class="a0ed70c1-aea1-4096-9110-e8bc85570a93" x="70.81" y="71.39" width="25.13" height="3.78" rx="1.4"/><circle class="bd363368-55da-4631-a1d6-878dd68da818" cx="111.99" cy="67.62" r="1.89"/><circle class="b15a277c-0839-4579-a796-3604e2b66216" cx="128.99" cy="67.62" r="3.78"/><circle class="bf0e60ba-407a-49a0-8cb2-eef4499095ed" cx="119.55" cy="67.62" r="2.83"/><rect class="b68b4fab-5a44-4ff1-b5b1-920a3e957bd7" x="66.38" y="107.28" width="70.82" height="18.89" rx="3"/><rect class="ba889cf7-bf4d-4fdd-9dbc-f05b8853d535" x="70.81" y="109.17" width="25.13" height="3.78" rx="1.4"/><rect class="b026a980-025e-4554-9c3f-f73f6e314ea5" x="70.81" y="114.83" width="25.13" height="3.78" rx="1.4"/><rect class="a0ed70c1-aea1-4096-9110-e8bc85570a93" x="70.81" y="120.5" width="25.13" height="3.78" rx="1.4"/><circle class="bd363368-55da-4631-a1d6-878dd68da818" cx="111.99" cy="116.72" r="1.89"/><circle class="b15a277c-0839-4579-a796-3604e2b66216" cx="128.99" cy="116.72" r="3.78"/><circle class="bf0e60ba-407a-49a0-8cb2-eef4499095ed" cx="119.55" cy="116.72" r="2.83"/><rect class="b68b4fab-5a44-4ff1-b5b1-920a3e957bd7" x="66.38" y="33.62" width="70.82" height="18.89" rx="3"/><rect class="b29f2c7c-d1c3-408f-aaf8-43a0f49290c4" x="70.81" y="36.93" width="25.13" height="4.72" rx="1.76"/><rect class="edadedaa-da77-4d4c-a5b6-30441071f179" x="70.81" y="44.48" width="25.13" height="4.72" rx="1.76"/><circle class="bd363368-55da-4631-a1d6-878dd68da818" cx="111.99" cy="43.06" r="1.89"/><circle class="b15a277c-0839-4579-a796-3604e2b66216" cx="128.99" cy="43.06" r="3.78"/><circle class="bf0e60ba-407a-49a0-8cb2-eef4499095ed" cx="119.55" cy="43.06" r="2.83"/><rect class="b68b4fab-5a44-4ff1-b5b1-920a3e957bd7" x="66.38" y="82.72" width="70.82" height="18.89" rx="3"/><rect class="b29f2c7c-d1c3-408f-aaf8-43a0f49290c4" x="70.81" y="86.03" width="25.13" height="4.72" rx="1.76"/><rect class="edadedaa-da77-4d4c-a5b6-30441071f179" x="70.81" y="93.58" width="25.13" height="4.72" rx="1.76"/><circle class="bd363368-55da-4631-a1d6-878dd68da818" cx="111.99" cy="92.17" r="1.89"/><circle class="b15a277c-0839-4579-a796-3604e2b66216" cx="128.99" cy="92.17" r="3.78"/><circle class="bf0e60ba-407a-49a0-8cb2-eef4499095ed" cx="119.55" cy="92.17" r="2.83"/></g></g></g></svg>