<svg viewBox="0 0 166.12 164.33" xmlns="http://www.w3.org/2000/svg"><g fill="none" stroke="#131414" stroke-miterlimit="10" stroke-width="3"><circle cx="76.81" cy="76.81" r="75.31"/><ellipse cx="76.99" cy="76.87" rx="75.32" ry="32.55" transform="matrix(.32886665 -.94437637 .94437637 .32886665 -20.93 124.29)"/><ellipse cx="76.99" cy="76.87" rx="32.55" ry="75.32" transform="matrix(.32886665 -.94437637 .94437637 .32886665 -20.93 124.29)"/><path d="m137.91 10.61s26.89 18.76 26.71 60" stroke-linecap="round"/><path d="m124.12 2.21s5.75 2.77 7.18 4.2" stroke-linecap="round"/><path d="m12.58 140.5a82.37 82.37 0 0 0 13.42 11.11 83.24 83.24 0 0 0 25 11.22" stroke-linecap="round"/><path d="m5.43 130.73a17.2 17.2 0 0 0 2.62 3.69" stroke-linecap="round"/></g><circle cx="94.91" cy="113.61" fill="#03a0a5" r="7.01"/><circle cx="114.74" cy="56.8" fill="#03a0a5" r="7.01"/><circle cx="38.9" cy="94.17" fill="#03a0a5" r="7.01"/><circle cx="58.73" cy="36.94" fill="#03a0a5" r="7.01"/></svg>